<svg xmlns="http://www.w3.org/2000/svg" width="15" height="15" viewBox="0 0 15 15">
  <path fill="#008ADC" fill-rule="evenodd" d="M10.2603845,8.50166681 C11.3870054,6.59410003 11.1308239,4.09595315 9.49184025,2.45696945 C7.54921432,0.514343517 4.39959538,0.514343517 2.45696945,2.45696945 C0.514343517,4.39959538 0.514343517,7.54921432 2.45696945,9.49184025 C4.09595315,11.1308239 6.59410003,11.3870054 8.50166681,10.2603845 L12.716156,14.4748737 L14.4748737,12.716156 L10.2603845,8.50166681 L10.2603845,8.50166681 Z M8.11703133,8.11703133 C9.30037126,6.9336914 9.30037126,5.0151183 8.11703133,3.83177837 C6.9336914,2.64843844 5.0151183,2.64843844 3.83177837,3.83177837 C2.64843844,5.0151183 2.64843844,6.9336914 3.83177837,8.11703133 C5.0151183,9.30037126 6.9336914,9.30037126 8.11703133,8.11703133 L8.11703133,8.11703133 Z"/>
</svg>
